<?xml version="1.0" encoding="UTF-8"?><svg id="Layer_1" xmlns="http://www.w3.org/2000/svg" viewBox="0 0 429.07 429.07"><defs><style>.cls-1{fill:#3ef8f4;}</style></defs><path class="cls-1" d="M214.53,168.59c-12.18,0-23.87,4.84-32.48,13.46-8.62,8.61-13.46,20.3-13.46,32.48s4.84,23.87,13.46,32.48c8.61,8.61,20.3,13.45,32.48,13.45s23.87-4.84,32.48-13.45c8.61-8.62,13.45-20.3,13.45-32.48-.12-12.14-5-23.76-13.59-32.34-8.59-8.59-20.2-13.47-32.35-13.59h0Zm0,63.46c-4.64,0-9.1-1.84-12.39-5.13-3.29-3.29-5.13-7.74-5.13-12.39s1.84-9.1,5.13-12.39c3.29-3.29,7.75-5.13,12.39-5.13s9.11,1.84,12.39,5.13c3.29,3.29,5.13,7.75,5.13,12.39-.12,4.61-2,9-5.27,12.26-3.26,3.26-7.65,5.14-12.26,5.27h0Z"/><path class="cls-1" d="M379.81,63.46c-.12-3.73-1.65-7.28-4.29-9.91-2.64-2.64-6.18-4.18-9.91-4.29h-53.04V0h-28.41V49.25h-27.47V0h-28.41V49.25h-27.47V0h-28.41V49.25h-27.46V0h-28.41V49.25H63.46c-3.73,.12-7.28,1.65-9.91,4.29-2.64,2.64-4.18,6.18-4.29,9.91v53.04H0v28.41H49.25v27.47H0v28.41H49.25v27.47H0v28.41H49.25v27.47H0v28.41H49.25v53.04c.12,3.73,1.65,7.27,4.29,9.91,2.64,2.64,6.18,4.18,9.91,4.29h53.04v49.25h28.41v-49.25h27.47v49.25h28.41v-49.25h27.47v49.25h28.41v-49.25h27.47v49.25h28.41v-49.25h53.04c3.73-.12,7.27-1.65,9.91-4.29s4.18-6.18,4.29-9.91v-53.04h49.25v-28.41h-49.25v-27.47h49.25v-28.41h-49.25v-27.47h49.25v-28.41h-49.25v-27.46h49.25v-28.41h-49.25V63.46Zm-54.46,164.33c.07,6.9-5,12.78-11.84,13.73l-10.42,1.89c-1.45,4.53-3.19,8.96-5.21,13.26l6.16,9h0c3.97,5.63,3.16,13.32-1.89,18l-18.47,18.47c-4.68,5.05-12.37,5.86-18,1.89l-9-6.16-13.26,5.21-1.89,10.42c-.95,6.84-6.83,11.91-13.73,11.84h-26.52c-6.9,.07-12.78-5-13.73-11.84l-1.89-10.42-13.26-5.21-9,6.16c-5.62,3.97-13.32,3.16-18-1.89l-18.47-18.47c-5.05-4.68-5.86-12.37-1.89-18l6.16-9h0c-2.02-4.3-3.76-8.73-5.21-13.26l-10.42-1.89c-6.84-.95-11.91-6.83-11.84-13.73v-26.52c-.07-6.9,5-12.78,11.84-13.73l10.42-1.89c1.45-4.53,3.19-8.96,5.21-13.26l-6.16-9c-3.97-5.62-3.16-13.32,1.89-18l18.47-18.47c4.68-5.05,12.37-5.86,18-1.89l9,6.16,13.26-5.21,1.89-10.42c.95-6.84,6.83-11.91,13.73-11.84h26.52c6.9-.07,12.78,5,13.73,11.84l1.89,10.42,13.26,5.21,9-6.16c5.62-3.97,13.32-3.16,18,1.89l18.47,18.47c5.05,4.68,5.86,12.37,1.89,18l-6.16,9c2.02,4.3,3.76,8.73,5.21,13.26l10.42,1.89c6.84,.95,11.91,6.83,11.84,13.73v26.52Z"/></svg>